<?xml version="1.0" encoding="utf-8"?><svg xmlns="http://www.w3.org/2000/svg" xmlns:xlink="http://www.w3.org/1999/xlink" width="1366" height="625" preserveAspectRatio="xMidYMid" viewBox="0 0 1366 625" style="z-index:1;margin-right:-2px;display:block;background-repeat-y:initial;background-repeat-x:initial;background-color:rgb(255, 255, 255);animation-play-state:paused" ><g transform="translate(683,312.5) scale(1,1) translate(-683,-312.5)" style="transform:matrix(1, 0, 0, 1, 0, 0);animation-play-state:paused" ><linearGradient id="lg-0.31094280695161247" x1="0" x2="1" y1="0" y2="0" style="animation-play-state:paused" ><stop stop-color="#ff00ff" offset="0" style="animation-play-state:paused" ></stop>

  
<stop stop-color="#00ffff" offset="1" style="animation-play-state:paused" ></stop></linearGradient>
<path d="M 0 0 L 0 594.16 Q 136.6 531.143 273.2 490.914 T 546.4 409.908 T 819.6 418.204 T 1092.8 351.44 T 1366 210.63 L 1366 0 Z" fill="url(#lg-0.31094280695161247)" opacity="0.4" style="opacity:0.4;animation-play-state:paused" ></path>
<path d="M 0 0 L 0 556.747 Q 136.6 504.133 273.2 475.223 T 546.4 428.327 T 819.6 367.841 T 1092.8 355.563 T 1366 297.496 L 1366 0 Z" fill="url(#lg-0.31094280695161247)" opacity="0.4" style="opacity:0.4;animation-play-state:paused" ></path>
<path d="M 0 0 L 0 509.925 Q 136.6 584.793 273.2 557.127 T 546.4 434.501 T 819.6 440.903 T 1092.8 386.983 T 1366 324.021 L 1366 0 Z" fill="url(#lg-0.31094280695161247)" opacity="0.4" style="opacity:0.4;animation-play-state:paused" ></path>
<path d="M 0 0 L 0 543.542 Q 136.6 499.347 273.2 461.292 T 546.4 467.892 T 819.6 404.661 T 1092.8 301.366 T 1366 235.006 L 1366 0 Z" fill="url(#lg-0.31094280695161247)" opacity="0.4" style="opacity:0.4;animation-play-state:paused" ></path>
<path d="M 0 0 L 0 598.891 Q 136.6 546.448 273.2 513.3 T 546.4 424.064 T 819.6 386.814 T 1092.8 303.979 T 1366 301.38 L 1366 0 Z" fill="url(#lg-0.31094280695161247)" opacity="0.4" style="opacity:0.4;animation-play-state:paused" ></path></g></svg>